<?xml version="1.0" encoding="UTF-8" standalone="no"?>
<!DOCTYPE svg PUBLIC "-//W3C//DTD SVG 1.1//EN"
 "http://www.w3.org/Graphics/SVG/1.1/DTD/svg11.dtd">
<!-- Generated by graphviz version 2.47.0 (20210316.0004)
 -->
<!-- Title: dependencies Pages: 1 -->
<svg width="2063pt" height="284pt"
 viewBox="0.00 0.00 2063.00 284.00" xmlns="http://www.w3.org/2000/svg" xmlns:xlink="http://www.w3.org/1999/xlink">
<g id="graph0" class="graph" transform="scale(1 1) rotate(0) translate(4 280)">
<title>dependencies</title>
<polygon fill="white" stroke="transparent" points="-4,4 -4,-280 2059,-280 2059,4 -4,4"/>
<text text-anchor="start" x="1006.51" y="-42.4" font-family="Times-12" font-weight="bold" font-size="14.00">Legend</text>
<polygon fill="#ffffb3" stroke="transparent" points="793.5,-10 793.5,-30 813.5,-30 813.5,-10 793.5,-10"/>
<text text-anchor="start" x="817.13" y="-15.4" font-family="Times-12" font-size="14.00"> &#160;Declarations</text>
<polygon fill="#8dd3c7" stroke="transparent" points="906.5,-10 906.5,-30 926.5,-30 926.5,-10 906.5,-10"/>
<text text-anchor="start" x="930.23" y="-15.4" font-family="Times-12" font-size="14.00"> &#160;Module</text>
<polygon fill="#80b1d3" stroke="transparent" points="992.5,-10 992.5,-30 1012.5,-30 1012.5,-10 992.5,-10"/>
<text text-anchor="start" x="1016.28" y="-15.4" font-family="Times-12" font-size="14.00"> &#160;Bootstrap</text>
<polygon fill="#fdb462" stroke="transparent" points="1089.5,-10 1089.5,-30 1109.5,-30 1109.5,-10 1089.5,-10"/>
<text text-anchor="start" x="1113.17" y="-15.4" font-family="Times-12" font-size="14.00"> &#160;Providers</text>
<polygon fill="#fb8072" stroke="transparent" points="1185.5,-10 1185.5,-30 1205.5,-30 1205.5,-10 1185.5,-10"/>
<text text-anchor="start" x="1209.23" y="-15.4" font-family="Times-12" font-size="14.00"> &#160;Exports</text>
<g id="clust1" class="cluster">
<title>cluster_AppModule</title>
<polygon fill="none" stroke="black" stroke-dasharray="1,5" points="8,-70 8,-268 2047,-268 2047,-70 8,-70"/>
</g>
<g id="clust12" class="cluster">
<title>cluster_AppModule_bootstrap</title>
<polygon fill="none" stroke="black" points="986,-208 986,-260 1110,-260 1110,-208 986,-208"/>
</g>
<g id="clust2" class="cluster">
<title>cluster_AppModule_declarations</title>
<polygon fill="none" stroke="black" points="971,-78 971,-130 2039,-130 2039,-78 971,-78"/>
</g>
<g id="clust10" class="cluster">
<title>cluster_AppModule_imports</title>
<polygon fill="none" stroke="black" points="16,-78 16,-130 963,-130 963,-78 16,-78"/>
</g>
<!-- AppComponent -->
<g id="node1" class="node">
<title>AppComponent</title>
<polygon fill="#ffffb3" stroke="black" points="2030.94,-122 1925.06,-122 1925.06,-86 2030.94,-86 2030.94,-122"/>
<text text-anchor="middle" x="1978" y="-99.8" font-family="Times,serif" font-size="14.00">AppComponent</text>
</g>
<!-- AppModule -->
<g id="node8" class="node">
<title>AppModule</title>
<polygon fill="#8dd3c7" stroke="black" points="1089.66,-187 1086.66,-191 1065.66,-191 1062.66,-187 1006.34,-187 1006.34,-151 1089.66,-151 1089.66,-187"/>
<text text-anchor="middle" x="1048" y="-164.8" font-family="Times,serif" font-size="14.00">AppModule</text>
</g>
<!-- AppComponent&#45;&gt;AppModule -->
<g id="edge1" class="edge">
<title>AppComponent&#45;&gt;AppModule</title>
<path fill="none" stroke="black" d="M1978,-122.09C1978,-145.13 1978,-182 1978,-182 1978,-182 1099.77,-182 1099.77,-182"/>
<polygon fill="black" stroke="black" points="1099.77,-178.5 1089.77,-182 1099.77,-185.5 1099.77,-178.5"/>
</g>
<!-- MovieComponent -->
<g id="node2" class="node">
<title>MovieComponent</title>
<polygon fill="#ffffb3" stroke="black" points="1906.88,-122 1789.12,-122 1789.12,-86 1906.88,-86 1906.88,-122"/>
<text text-anchor="middle" x="1848" y="-99.8" font-family="Times,serif" font-size="14.00">MovieComponent</text>
</g>
<!-- MovieComponent&#45;&gt;AppModule -->
<g id="edge2" class="edge">
<title>MovieComponent&#45;&gt;AppModule</title>
<path fill="none" stroke="black" d="M1848,-122.04C1848,-143.66 1848,-177 1848,-177 1848,-177 1099.89,-177 1099.89,-177"/>
<polygon fill="black" stroke="black" points="1099.89,-173.5 1089.89,-177 1099.89,-180.5 1099.89,-173.5"/>
</g>
<!-- MovieListComponent -->
<g id="node3" class="node">
<title>MovieListComponent</title>
<polygon fill="#ffffb3" stroke="black" points="1770.66,-122 1631.34,-122 1631.34,-86 1770.66,-86 1770.66,-122"/>
<text text-anchor="middle" x="1701" y="-99.8" font-family="Times,serif" font-size="14.00">MovieListComponent</text>
</g>
<!-- MovieListComponent&#45;&gt;AppModule -->
<g id="edge3" class="edge">
<title>MovieListComponent&#45;&gt;AppModule</title>
<path fill="none" stroke="black" d="M1701,-122.22C1701,-142.37 1701,-172 1701,-172 1701,-172 1099.84,-172 1099.84,-172"/>
<polygon fill="black" stroke="black" points="1099.84,-168.5 1089.84,-172 1099.84,-175.5 1099.84,-168.5"/>
</g>
<!-- MovieDetailsComponent -->
<g id="node4" class="node">
<title>MovieDetailsComponent</title>
<polygon fill="#ffffb3" stroke="black" points="1612.54,-122 1455.46,-122 1455.46,-86 1612.54,-86 1612.54,-122"/>
<text text-anchor="middle" x="1534" y="-99.8" font-family="Times,serif" font-size="14.00">MovieDetailsComponent</text>
</g>
<!-- MovieDetailsComponent&#45;&gt;AppModule -->
<g id="edge4" class="edge">
<title>MovieDetailsComponent&#45;&gt;AppModule</title>
<path fill="none" stroke="black" d="M1534,-122.22C1534,-140.83 1534,-167 1534,-167 1534,-167 1099.86,-167 1099.86,-167"/>
<polygon fill="black" stroke="black" points="1099.86,-163.5 1089.86,-167 1099.86,-170.5 1099.86,-163.5"/>
</g>
<!-- HomepageComponent -->
<g id="node5" class="node">
<title>HomepageComponent</title>
<polygon fill="#ffffb3" stroke="black" points="1436.97,-122 1295.03,-122 1295.03,-86 1436.97,-86 1436.97,-122"/>
<text text-anchor="middle" x="1366" y="-99.8" font-family="Times,serif" font-size="14.00">HomepageComponent</text>
</g>
<!-- HomepageComponent&#45;&gt;AppModule -->
<g id="edge5" class="edge">
<title>HomepageComponent&#45;&gt;AppModule</title>
<path fill="none" stroke="black" d="M1366,-122.03C1366,-139.06 1366,-162 1366,-162 1366,-162 1099.9,-162 1099.9,-162"/>
<polygon fill="black" stroke="black" points="1099.9,-158.5 1089.9,-162 1099.9,-165.5 1099.9,-158.5"/>
</g>
<!-- HeaderBarComponent -->
<g id="node6" class="node">
<title>HeaderBarComponent</title>
<polygon fill="#ffffb3" stroke="black" points="1276.96,-122 1135.04,-122 1135.04,-86 1276.96,-86 1276.96,-122"/>
<text text-anchor="middle" x="1206" y="-99.8" font-family="Times,serif" font-size="14.00">HeaderBarComponent</text>
</g>
<!-- HeaderBarComponent&#45;&gt;AppModule -->
<g id="edge6" class="edge">
<title>HeaderBarComponent&#45;&gt;AppModule</title>
<path fill="none" stroke="black" d="M1206,-122.24C1206,-137.57 1206,-157 1206,-157 1206,-157 1099.93,-157 1099.93,-157"/>
<polygon fill="black" stroke="black" points="1099.93,-153.5 1089.93,-157 1099.93,-160.5 1099.93,-153.5"/>
</g>
<!-- FooterBarComponent -->
<g id="node7" class="node">
<title>FooterBarComponent</title>
<polygon fill="#ffffb3" stroke="black" points="1117.09,-122 978.91,-122 978.91,-86 1117.09,-86 1117.09,-122"/>
<text text-anchor="middle" x="1048" y="-99.8" font-family="Times,serif" font-size="14.00">FooterBarComponent</text>
</g>
<!-- FooterBarComponent&#45;&gt;AppModule -->
<g id="edge7" class="edge">
<title>FooterBarComponent&#45;&gt;AppModule</title>
<path fill="none" stroke="black" d="M1048,-122.11C1048,-122.11 1048,-140.99 1048,-140.99"/>
<polygon fill="black" stroke="black" points="1044.5,-140.99 1048,-150.99 1051.5,-140.99 1044.5,-140.99"/>
</g>
<!-- AppComponent  -->
<g id="node15" class="node">
<title>AppComponent </title>
<polygon fill="#80b1d3" stroke="black" points="1102.44,-252 993.56,-252 993.56,-216 1102.44,-216 1102.44,-252"/>
<text text-anchor="middle" x="1048" y="-229.8" font-family="Times,serif" font-size="14.00">AppComponent </text>
</g>
<!-- AppModule&#45;&gt;AppComponent  -->
<g id="edge14" class="edge">
<title>AppModule&#45;&gt;AppComponent </title>
<path fill="none" stroke="black" stroke-dasharray="1,5" d="M1048,-187.11C1048,-187.11 1048,-205.99 1048,-205.99"/>
<polygon fill="black" stroke="black" points="1044.5,-205.99 1048,-215.99 1051.5,-205.99 1044.5,-205.99"/>
</g>
<!-- BrowserModule -->
<g id="node9" class="node">
<title>BrowserModule</title>
<polygon fill="#8dd3c7" stroke="black" points="955.47,-122 952.47,-126 931.47,-126 928.47,-122 848.53,-122 848.53,-86 955.47,-86 955.47,-122"/>
<text text-anchor="middle" x="902" y="-99.8" font-family="Times,serif" font-size="14.00">BrowserModule</text>
</g>
<!-- BrowserModule&#45;&gt;AppModule -->
<g id="edge8" class="edge">
<title>BrowserModule&#45;&gt;AppModule</title>
<path fill="none" stroke="black" d="M902,-122.24C902,-137.57 902,-157 902,-157 902,-157 996.16,-157 996.16,-157"/>
<polygon fill="black" stroke="black" points="996.16,-160.5 1006.16,-157 996.16,-153.5 996.16,-160.5"/>
</g>
<!-- HttpClientModule -->
<g id="node10" class="node">
<title>HttpClientModule</title>
<polygon fill="#8dd3c7" stroke="black" points="830.16,-122 827.16,-126 806.16,-126 803.16,-122 711.84,-122 711.84,-86 830.16,-86 830.16,-122"/>
<text text-anchor="middle" x="771" y="-99.8" font-family="Times,serif" font-size="14.00">HttpClientModule</text>
</g>
<!-- HttpClientModule&#45;&gt;AppModule -->
<g id="edge9" class="edge">
<title>HttpClientModule&#45;&gt;AppModule</title>
<path fill="none" stroke="black" d="M771,-122.03C771,-139.06 771,-162 771,-162 771,-162 996.23,-162 996.23,-162"/>
<polygon fill="black" stroke="black" points="996.23,-165.5 1006.23,-162 996.23,-158.5 996.23,-165.5"/>
</g>
<!-- AppRoutingModule -->
<g id="node11" class="node">
<title>AppRoutingModule</title>
<polygon fill="#8dd3c7" stroke="black" points="693.27,-122 690.27,-126 669.27,-126 666.27,-122 564.73,-122 564.73,-86 693.27,-86 693.27,-122"/>
<text text-anchor="middle" x="629" y="-99.8" font-family="Times,serif" font-size="14.00">AppRoutingModule</text>
</g>
<!-- AppRoutingModule&#45;&gt;AppModule -->
<g id="edge10" class="edge">
<title>AppRoutingModule&#45;&gt;AppModule</title>
<path fill="none" stroke="black" d="M629,-122.22C629,-140.83 629,-167 629,-167 629,-167 996.29,-167 996.29,-167"/>
<polygon fill="black" stroke="black" points="996.29,-170.5 1006.29,-167 996.29,-163.5 996.29,-170.5"/>
</g>
<!-- StarRatingModule.forRoot() -->
<g id="node12" class="node">
<title>StarRatingModule.forRoot()</title>
<polygon fill="#8dd3c7" stroke="black" points="546.8,-122 543.8,-126 522.8,-126 519.8,-122 371.2,-122 371.2,-86 546.8,-86 546.8,-122"/>
<text text-anchor="middle" x="459" y="-99.8" font-family="Times,serif" font-size="14.00">StarRatingModule.forRoot()</text>
</g>
<!-- StarRatingModule.forRoot()&#45;&gt;AppModule -->
<g id="edge11" class="edge">
<title>StarRatingModule.forRoot()&#45;&gt;AppModule</title>
<path fill="none" stroke="black" d="M459,-122.22C459,-142.37 459,-172 459,-172 459,-172 996.11,-172 996.11,-172"/>
<polygon fill="black" stroke="black" points="996.11,-175.5 1006.11,-172 996.11,-168.5 996.11,-175.5"/>
</g>
<!-- provideFirebaseApp.(args) -->
<g id="node13" class="node">
<title>provideFirebaseApp.(args)</title>
<polygon fill="#8dd3c7" stroke="black" points="353.44,-122 350.44,-126 329.44,-126 326.44,-122 186.56,-122 186.56,-86 353.44,-86 353.44,-122"/>
<text text-anchor="middle" x="270" y="-99.8" font-family="Times,serif" font-size="14.00">provideFirebaseApp.(args)</text>
</g>
<!-- provideFirebaseApp.(args)&#45;&gt;AppModule -->
<g id="edge12" class="edge">
<title>provideFirebaseApp.(args)&#45;&gt;AppModule</title>
<path fill="none" stroke="black" d="M270,-122.04C270,-143.66 270,-177 270,-177 270,-177 996.17,-177 996.17,-177"/>
<polygon fill="black" stroke="black" points="996.17,-180.5 1006.17,-177 996.17,-173.5 996.17,-180.5"/>
</g>
<!-- provideFirestore.(args) -->
<g id="node14" class="node">
<title>provideFirestore.(args)</title>
<polygon fill="#8dd3c7" stroke="black" points="168.17,-122 165.17,-126 144.17,-126 141.17,-122 23.83,-122 23.83,-86 168.17,-86 168.17,-122"/>
<text text-anchor="middle" x="96" y="-99.8" font-family="Times,serif" font-size="14.00">provideFirestore.(args)</text>
</g>
<!-- provideFirestore.(args)&#45;&gt;AppModule -->
<g id="edge13" class="edge">
<title>provideFirestore.(args)&#45;&gt;AppModule</title>
<path fill="none" stroke="black" d="M96,-122.09C96,-145.13 96,-182 96,-182 96,-182 996.17,-182 996.17,-182"/>
<polygon fill="black" stroke="black" points="996.17,-185.5 1006.17,-182 996.17,-178.5 996.17,-185.5"/>
</g>
</g>
</svg>
