<?xml version="1.0" encoding="UTF-8" standalone="no"?>
<!DOCTYPE svg PUBLIC "-//W3C//DTD SVG 1.1//EN"
 "http://www.w3.org/Graphics/SVG/1.1/DTD/svg11.dtd">
<!-- Generated by graphviz version 2.47.0 (20210316.0004)
 -->
<!-- Title: dependencies Pages: 1 -->
<svg width="1907pt" height="284pt"
 viewBox="0.00 0.00 1907.00 284.00" xmlns="http://www.w3.org/2000/svg" xmlns:xlink="http://www.w3.org/1999/xlink">
<g id="graph0" class="graph" transform="scale(1 1) rotate(0) translate(4 280)">
<title>dependencies</title>
<polygon fill="white" stroke="transparent" points="-4,4 -4,-280 1903,-280 1903,4 -4,4"/>
<text text-anchor="start" x="928.51" y="-42.4" font-family="Times-12" font-weight="bold" font-size="14.00">Legend</text>
<polygon fill="#ffffb3" stroke="transparent" points="715.5,-10 715.5,-30 735.5,-30 735.5,-10 715.5,-10"/>
<text text-anchor="start" x="739.13" y="-15.4" font-family="Times-12" font-size="14.00"> &#160;Declarations</text>
<polygon fill="#8dd3c7" stroke="transparent" points="828.5,-10 828.5,-30 848.5,-30 848.5,-10 828.5,-10"/>
<text text-anchor="start" x="852.23" y="-15.4" font-family="Times-12" font-size="14.00"> &#160;Module</text>
<polygon fill="#80b1d3" stroke="transparent" points="914.5,-10 914.5,-30 934.5,-30 934.5,-10 914.5,-10"/>
<text text-anchor="start" x="938.28" y="-15.4" font-family="Times-12" font-size="14.00"> &#160;Bootstrap</text>
<polygon fill="#fdb462" stroke="transparent" points="1011.5,-10 1011.5,-30 1031.5,-30 1031.5,-10 1011.5,-10"/>
<text text-anchor="start" x="1035.17" y="-15.4" font-family="Times-12" font-size="14.00"> &#160;Providers</text>
<polygon fill="#fb8072" stroke="transparent" points="1107.5,-10 1107.5,-30 1127.5,-30 1127.5,-10 1107.5,-10"/>
<text text-anchor="start" x="1131.23" y="-15.4" font-family="Times-12" font-size="14.00"> &#160;Exports</text>
<g id="clust1" class="cluster">
<title>cluster_AppModule</title>
<polygon fill="none" stroke="black" stroke-dasharray="1,5" points="8,-70 8,-268 1891,-268 1891,-70 8,-70"/>
</g>
<g id="clust2" class="cluster">
<title>cluster_AppModule_declarations</title>
<polygon fill="none" stroke="black" points="971,-78 971,-130 1883,-130 1883,-78 971,-78"/>
</g>
<g id="clust9" class="cluster">
<title>cluster_AppModule_imports</title>
<polygon fill="none" stroke="black" points="16,-78 16,-130 963,-130 963,-78 16,-78"/>
</g>
<g id="clust11" class="cluster">
<title>cluster_AppModule_bootstrap</title>
<polygon fill="none" stroke="black" points="914,-208 914,-260 1038,-260 1038,-208 914,-208"/>
</g>
<!-- AppComponent -->
<g id="node1" class="node">
<title>AppComponent</title>
<polygon fill="#ffffb3" stroke="black" points="1874.94,-122 1769.06,-122 1769.06,-86 1874.94,-86 1874.94,-122"/>
<text text-anchor="middle" x="1822" y="-99.8" font-family="Times,serif" font-size="14.00">AppComponent</text>
</g>
<!-- AppModule -->
<g id="node7" class="node">
<title>AppModule</title>
<polygon fill="#8dd3c7" stroke="black" points="1017.66,-187 1014.66,-191 993.66,-191 990.66,-187 934.34,-187 934.34,-151 1017.66,-151 1017.66,-187"/>
<text text-anchor="middle" x="976" y="-164.8" font-family="Times,serif" font-size="14.00">AppModule</text>
</g>
<!-- AppComponent&#45;&gt;AppModule -->
<g id="edge1" class="edge">
<title>AppComponent&#45;&gt;AppModule</title>
<path fill="none" stroke="black" d="M1822,-122.25C1822,-145.02 1822,-181 1822,-181 1822,-181 1027.66,-181 1027.66,-181"/>
<polygon fill="black" stroke="black" points="1027.66,-177.5 1017.66,-181 1027.66,-184.5 1027.66,-177.5"/>
</g>
<!-- MovieComponent -->
<g id="node2" class="node">
<title>MovieComponent</title>
<polygon fill="#ffffb3" stroke="black" points="1750.88,-122 1633.12,-122 1633.12,-86 1750.88,-86 1750.88,-122"/>
<text text-anchor="middle" x="1692" y="-99.8" font-family="Times,serif" font-size="14.00">MovieComponent</text>
</g>
<!-- MovieComponent&#45;&gt;AppModule -->
<g id="edge2" class="edge">
<title>MovieComponent&#45;&gt;AppModule</title>
<path fill="none" stroke="black" d="M1692,-122.28C1692,-143.32 1692,-175 1692,-175 1692,-175 1027.85,-175 1027.85,-175"/>
<polygon fill="black" stroke="black" points="1027.85,-171.5 1017.85,-175 1027.85,-178.5 1027.85,-171.5"/>
</g>
<!-- MovieListComponent -->
<g id="node3" class="node">
<title>MovieListComponent</title>
<polygon fill="#ffffb3" stroke="black" points="1614.66,-122 1475.34,-122 1475.34,-86 1614.66,-86 1614.66,-122"/>
<text text-anchor="middle" x="1545" y="-99.8" font-family="Times,serif" font-size="14.00">MovieListComponent</text>
</g>
<!-- MovieListComponent&#45;&gt;AppModule -->
<g id="edge3" class="edge">
<title>MovieListComponent&#45;&gt;AppModule</title>
<path fill="none" stroke="black" d="M1545,-122.11C1545,-141.34 1545,-169 1545,-169 1545,-169 1027.84,-169 1027.84,-169"/>
<polygon fill="black" stroke="black" points="1027.84,-165.5 1017.84,-169 1027.84,-172.5 1027.84,-165.5"/>
</g>
<!-- MovieDetailsComponent -->
<g id="node4" class="node">
<title>MovieDetailsComponent</title>
<polygon fill="#ffffb3" stroke="black" points="1456.54,-122 1299.46,-122 1299.46,-86 1456.54,-86 1456.54,-122"/>
<text text-anchor="middle" x="1378" y="-99.8" font-family="Times,serif" font-size="14.00">MovieDetailsComponent</text>
</g>
<!-- MovieDetailsComponent&#45;&gt;AppModule -->
<g id="edge4" class="edge">
<title>MovieDetailsComponent&#45;&gt;AppModule</title>
<path fill="none" stroke="black" d="M1378,-122.02C1378,-139.37 1378,-163 1378,-163 1378,-163 1027.88,-163 1027.88,-163"/>
<polygon fill="black" stroke="black" points="1027.88,-159.5 1017.88,-163 1027.88,-166.5 1027.88,-159.5"/>
</g>
<!-- HomepageComponent -->
<g id="node5" class="node">
<title>HomepageComponent</title>
<polygon fill="#ffffb3" stroke="black" points="1280.97,-122 1139.03,-122 1139.03,-86 1280.97,-86 1280.97,-122"/>
<text text-anchor="middle" x="1210" y="-99.8" font-family="Times,serif" font-size="14.00">HomepageComponent</text>
</g>
<!-- HomepageComponent&#45;&gt;AppModule -->
<g id="edge5" class="edge">
<title>HomepageComponent&#45;&gt;AppModule</title>
<path fill="none" stroke="black" d="M1210,-122.24C1210,-137.57 1210,-157 1210,-157 1210,-157 1027.83,-157 1027.83,-157"/>
<polygon fill="black" stroke="black" points="1027.83,-153.5 1017.83,-157 1027.83,-160.5 1027.83,-153.5"/>
</g>
<!-- HeaderBarComponent -->
<g id="node6" class="node">
<title>HeaderBarComponent</title>
<polygon fill="#ffffb3" stroke="black" points="1120.96,-122 979.04,-122 979.04,-86 1120.96,-86 1120.96,-122"/>
<text text-anchor="middle" x="1050" y="-99.8" font-family="Times,serif" font-size="14.00">HeaderBarComponent</text>
</g>
<!-- HeaderBarComponent&#45;&gt;AppModule -->
<g id="edge6" class="edge">
<title>HeaderBarComponent&#45;&gt;AppModule</title>
<path fill="none" stroke="black" d="M998.43,-122.11C998.43,-122.11 998.43,-140.99 998.43,-140.99"/>
<polygon fill="black" stroke="black" points="994.93,-140.99 998.43,-150.99 1001.93,-140.99 994.93,-140.99"/>
</g>
<!-- AppComponent  -->
<g id="node14" class="node">
<title>AppComponent </title>
<polygon fill="#80b1d3" stroke="black" points="1030.44,-252 921.56,-252 921.56,-216 1030.44,-216 1030.44,-252"/>
<text text-anchor="middle" x="976" y="-229.8" font-family="Times,serif" font-size="14.00">AppComponent </text>
</g>
<!-- AppModule&#45;&gt;AppComponent  -->
<g id="edge13" class="edge">
<title>AppModule&#45;&gt;AppComponent </title>
<path fill="none" stroke="black" stroke-dasharray="1,5" d="M976,-187.11C976,-187.11 976,-205.99 976,-205.99"/>
<polygon fill="black" stroke="black" points="972.5,-205.99 976,-215.99 979.5,-205.99 972.5,-205.99"/>
</g>
<!-- BrowserModule -->
<g id="node8" class="node">
<title>BrowserModule</title>
<polygon fill="#8dd3c7" stroke="black" points="955.47,-122 952.47,-126 931.47,-126 928.47,-122 848.53,-122 848.53,-86 955.47,-86 955.47,-122"/>
<text text-anchor="middle" x="902" y="-99.8" font-family="Times,serif" font-size="14.00">BrowserModule</text>
</g>
<!-- BrowserModule&#45;&gt;AppModule -->
<g id="edge7" class="edge">
<title>BrowserModule&#45;&gt;AppModule</title>
<path fill="none" stroke="black" d="M944.83,-122.11C944.83,-122.11 944.83,-140.99 944.83,-140.99"/>
<polygon fill="black" stroke="black" points="941.33,-140.99 944.83,-150.99 948.33,-140.99 941.33,-140.99"/>
</g>
<!-- HttpClientModule -->
<g id="node9" class="node">
<title>HttpClientModule</title>
<polygon fill="#8dd3c7" stroke="black" points="830.16,-122 827.16,-126 806.16,-126 803.16,-122 711.84,-122 711.84,-86 830.16,-86 830.16,-122"/>
<text text-anchor="middle" x="771" y="-99.8" font-family="Times,serif" font-size="14.00">HttpClientModule</text>
</g>
<!-- HttpClientModule&#45;&gt;AppModule -->
<g id="edge8" class="edge">
<title>HttpClientModule&#45;&gt;AppModule</title>
<path fill="none" stroke="black" d="M771,-122.24C771,-137.57 771,-157 771,-157 771,-157 924.02,-157 924.02,-157"/>
<polygon fill="black" stroke="black" points="924.02,-160.5 934.02,-157 924.02,-153.5 924.02,-160.5"/>
</g>
<!-- AppRoutingModule -->
<g id="node10" class="node">
<title>AppRoutingModule</title>
<polygon fill="#8dd3c7" stroke="black" points="693.27,-122 690.27,-126 669.27,-126 666.27,-122 564.73,-122 564.73,-86 693.27,-86 693.27,-122"/>
<text text-anchor="middle" x="629" y="-99.8" font-family="Times,serif" font-size="14.00">AppRoutingModule</text>
</g>
<!-- AppRoutingModule&#45;&gt;AppModule -->
<g id="edge9" class="edge">
<title>AppRoutingModule&#45;&gt;AppModule</title>
<path fill="none" stroke="black" d="M629,-122.02C629,-139.37 629,-163 629,-163 629,-163 924.14,-163 924.14,-163"/>
<polygon fill="black" stroke="black" points="924.14,-166.5 934.14,-163 924.14,-159.5 924.14,-166.5"/>
</g>
<!-- StarRatingModule.forRoot() -->
<g id="node11" class="node">
<title>StarRatingModule.forRoot()</title>
<polygon fill="#8dd3c7" stroke="black" points="546.8,-122 543.8,-126 522.8,-126 519.8,-122 371.2,-122 371.2,-86 546.8,-86 546.8,-122"/>
<text text-anchor="middle" x="459" y="-99.8" font-family="Times,serif" font-size="14.00">StarRatingModule.forRoot()</text>
</g>
<!-- StarRatingModule.forRoot()&#45;&gt;AppModule -->
<g id="edge10" class="edge">
<title>StarRatingModule.forRoot()&#45;&gt;AppModule</title>
<path fill="none" stroke="black" d="M459,-122.11C459,-141.34 459,-169 459,-169 459,-169 924.13,-169 924.13,-169"/>
<polygon fill="black" stroke="black" points="924.13,-172.5 934.13,-169 924.13,-165.5 924.13,-172.5"/>
</g>
<!-- provideFirebaseApp.(args) -->
<g id="node12" class="node">
<title>provideFirebaseApp.(args)</title>
<polygon fill="#8dd3c7" stroke="black" points="353.44,-122 350.44,-126 329.44,-126 326.44,-122 186.56,-122 186.56,-86 353.44,-86 353.44,-122"/>
<text text-anchor="middle" x="270" y="-99.8" font-family="Times,serif" font-size="14.00">provideFirebaseApp.(args)</text>
</g>
<!-- provideFirebaseApp.(args)&#45;&gt;AppModule -->
<g id="edge11" class="edge">
<title>provideFirebaseApp.(args)&#45;&gt;AppModule</title>
<path fill="none" stroke="black" d="M270,-122.28C270,-143.32 270,-175 270,-175 270,-175 924.21,-175 924.21,-175"/>
<polygon fill="black" stroke="black" points="924.21,-178.5 934.21,-175 924.21,-171.5 924.21,-178.5"/>
</g>
<!-- provideFirestore.(args) -->
<g id="node13" class="node">
<title>provideFirestore.(args)</title>
<polygon fill="#8dd3c7" stroke="black" points="168.17,-122 165.17,-126 144.17,-126 141.17,-122 23.83,-122 23.83,-86 168.17,-86 168.17,-122"/>
<text text-anchor="middle" x="96" y="-99.8" font-family="Times,serif" font-size="14.00">provideFirestore.(args)</text>
</g>
<!-- provideFirestore.(args)&#45;&gt;AppModule -->
<g id="edge12" class="edge">
<title>provideFirestore.(args)&#45;&gt;AppModule</title>
<path fill="none" stroke="black" d="M96,-122.25C96,-145.02 96,-181 96,-181 96,-181 924.15,-181 924.15,-181"/>
<polygon fill="black" stroke="black" points="924.15,-184.5 934.15,-181 924.15,-177.5 924.15,-184.5"/>
</g>
</g>
</svg>
