<?xml version="1.0" encoding="UTF-8" standalone="no"?>
<!DOCTYPE svg PUBLIC "-//W3C//DTD SVG 1.1//EN"
 "http://www.w3.org/Graphics/SVG/1.1/DTD/svg11.dtd">
<!-- Generated by graphviz version 2.47.0 (20210316.0004)
 -->
<!-- Title: dependencies Pages: 1 -->
<svg width="1747pt" height="284pt"
 viewBox="0.00 0.00 1747.00 284.00" xmlns="http://www.w3.org/2000/svg" xmlns:xlink="http://www.w3.org/1999/xlink">
<g id="graph0" class="graph" transform="scale(1 1) rotate(0) translate(4 280)">
<title>dependencies</title>
<polygon fill="white" stroke="transparent" points="-4,4 -4,-280 1743,-280 1743,4 -4,4"/>
<text text-anchor="start" x="848.51" y="-42.4" font-family="Times-12" font-weight="bold" font-size="14.00">Legend</text>
<polygon fill="#ffffb3" stroke="transparent" points="635.5,-10 635.5,-30 655.5,-30 655.5,-10 635.5,-10"/>
<text text-anchor="start" x="659.13" y="-15.4" font-family="Times-12" font-size="14.00"> &#160;Declarations</text>
<polygon fill="#8dd3c7" stroke="transparent" points="748.5,-10 748.5,-30 768.5,-30 768.5,-10 748.5,-10"/>
<text text-anchor="start" x="772.23" y="-15.4" font-family="Times-12" font-size="14.00"> &#160;Module</text>
<polygon fill="#80b1d3" stroke="transparent" points="834.5,-10 834.5,-30 854.5,-30 854.5,-10 834.5,-10"/>
<text text-anchor="start" x="858.28" y="-15.4" font-family="Times-12" font-size="14.00"> &#160;Bootstrap</text>
<polygon fill="#fdb462" stroke="transparent" points="931.5,-10 931.5,-30 951.5,-30 951.5,-10 931.5,-10"/>
<text text-anchor="start" x="955.17" y="-15.4" font-family="Times-12" font-size="14.00"> &#160;Providers</text>
<polygon fill="#fb8072" stroke="transparent" points="1027.5,-10 1027.5,-30 1047.5,-30 1047.5,-10 1027.5,-10"/>
<text text-anchor="start" x="1051.23" y="-15.4" font-family="Times-12" font-size="14.00"> &#160;Exports</text>
<g id="clust1" class="cluster">
<title>cluster_AppModule</title>
<polygon fill="none" stroke="black" stroke-dasharray="1,5" points="8,-70 8,-268 1731,-268 1731,-70 8,-70"/>
</g>
<g id="clust2" class="cluster">
<title>cluster_AppModule_declarations</title>
<polygon fill="none" stroke="black" points="971,-78 971,-130 1723,-130 1723,-78 971,-78"/>
</g>
<g id="clust8" class="cluster">
<title>cluster_AppModule_imports</title>
<polygon fill="none" stroke="black" points="16,-78 16,-130 963,-130 963,-78 16,-78"/>
</g>
<g id="clust10" class="cluster">
<title>cluster_AppModule_bootstrap</title>
<polygon fill="none" stroke="black" points="840,-208 840,-260 964,-260 964,-208 840,-208"/>
</g>
<!-- AppComponent -->
<g id="node1" class="node">
<title>AppComponent</title>
<polygon fill="#ffffb3" stroke="black" points="1714.94,-122 1609.06,-122 1609.06,-86 1714.94,-86 1714.94,-122"/>
<text text-anchor="middle" x="1662" y="-99.8" font-family="Times,serif" font-size="14.00">AppComponent</text>
</g>
<!-- AppModule -->
<g id="node6" class="node">
<title>AppModule</title>
<polygon fill="#8dd3c7" stroke="black" points="943.66,-187 940.66,-191 919.66,-191 916.66,-187 860.34,-187 860.34,-151 943.66,-151 943.66,-187"/>
<text text-anchor="middle" x="902" y="-164.8" font-family="Times,serif" font-size="14.00">AppModule</text>
</g>
<!-- AppComponent&#45;&gt;AppModule -->
<g id="edge1" class="edge">
<title>AppComponent&#45;&gt;AppModule</title>
<path fill="none" stroke="black" d="M1662,-122.25C1662,-145.02 1662,-181 1662,-181 1662,-181 953.67,-181 953.67,-181"/>
<polygon fill="black" stroke="black" points="953.67,-177.5 943.67,-181 953.67,-184.5 953.67,-177.5"/>
</g>
<!-- MovieComponent -->
<g id="node2" class="node">
<title>MovieComponent</title>
<polygon fill="#ffffb3" stroke="black" points="1590.88,-122 1473.12,-122 1473.12,-86 1590.88,-86 1590.88,-122"/>
<text text-anchor="middle" x="1532" y="-99.8" font-family="Times,serif" font-size="14.00">MovieComponent</text>
</g>
<!-- MovieComponent&#45;&gt;AppModule -->
<g id="edge2" class="edge">
<title>MovieComponent&#45;&gt;AppModule</title>
<path fill="none" stroke="black" d="M1532,-122.28C1532,-143.32 1532,-175 1532,-175 1532,-175 953.82,-175 953.82,-175"/>
<polygon fill="black" stroke="black" points="953.82,-171.5 943.82,-175 953.82,-178.5 953.82,-171.5"/>
</g>
<!-- MovieListComponent -->
<g id="node3" class="node">
<title>MovieListComponent</title>
<polygon fill="#ffffb3" stroke="black" points="1454.66,-122 1315.34,-122 1315.34,-86 1454.66,-86 1454.66,-122"/>
<text text-anchor="middle" x="1385" y="-99.8" font-family="Times,serif" font-size="14.00">MovieListComponent</text>
</g>
<!-- MovieListComponent&#45;&gt;AppModule -->
<g id="edge3" class="edge">
<title>MovieListComponent&#45;&gt;AppModule</title>
<path fill="none" stroke="black" d="M1385,-122.11C1385,-141.34 1385,-169 1385,-169 1385,-169 954.02,-169 954.02,-169"/>
<polygon fill="black" stroke="black" points="954.02,-165.5 944.02,-169 954.02,-172.5 954.02,-165.5"/>
</g>
<!-- MovieDetailsComponent -->
<g id="node4" class="node">
<title>MovieDetailsComponent</title>
<polygon fill="#ffffb3" stroke="black" points="1296.54,-122 1139.46,-122 1139.46,-86 1296.54,-86 1296.54,-122"/>
<text text-anchor="middle" x="1218" y="-99.8" font-family="Times,serif" font-size="14.00">MovieDetailsComponent</text>
</g>
<!-- MovieDetailsComponent&#45;&gt;AppModule -->
<g id="edge4" class="edge">
<title>MovieDetailsComponent&#45;&gt;AppModule</title>
<path fill="none" stroke="black" d="M1218,-122.02C1218,-139.37 1218,-163 1218,-163 1218,-163 953.96,-163 953.96,-163"/>
<polygon fill="black" stroke="black" points="953.96,-159.5 943.96,-163 953.96,-166.5 953.96,-159.5"/>
</g>
<!-- HomepageComponent -->
<g id="node5" class="node">
<title>HomepageComponent</title>
<polygon fill="#ffffb3" stroke="black" points="1120.97,-122 979.03,-122 979.03,-86 1120.97,-86 1120.97,-122"/>
<text text-anchor="middle" x="1050" y="-99.8" font-family="Times,serif" font-size="14.00">HomepageComponent</text>
</g>
<!-- HomepageComponent&#45;&gt;AppModule -->
<g id="edge5" class="edge">
<title>HomepageComponent&#45;&gt;AppModule</title>
<path fill="none" stroke="black" d="M1050,-122.24C1050,-137.57 1050,-157 1050,-157 1050,-157 954.01,-157 954.01,-157"/>
<polygon fill="black" stroke="black" points="954.02,-153.5 944.01,-157 954.01,-160.5 954.02,-153.5"/>
</g>
<!-- AppComponent  -->
<g id="node13" class="node">
<title>AppComponent </title>
<polygon fill="#80b1d3" stroke="black" points="956.44,-252 847.56,-252 847.56,-216 956.44,-216 956.44,-252"/>
<text text-anchor="middle" x="902" y="-229.8" font-family="Times,serif" font-size="14.00">AppComponent </text>
</g>
<!-- AppModule&#45;&gt;AppComponent  -->
<g id="edge12" class="edge">
<title>AppModule&#45;&gt;AppComponent </title>
<path fill="none" stroke="black" stroke-dasharray="1,5" d="M902,-187.11C902,-187.11 902,-205.99 902,-205.99"/>
<polygon fill="black" stroke="black" points="898.5,-205.99 902,-215.99 905.5,-205.99 898.5,-205.99"/>
</g>
<!-- BrowserModule -->
<g id="node7" class="node">
<title>BrowserModule</title>
<polygon fill="#8dd3c7" stroke="black" points="955.47,-122 952.47,-126 931.47,-126 928.47,-122 848.53,-122 848.53,-86 955.47,-86 955.47,-122"/>
<text text-anchor="middle" x="902" y="-99.8" font-family="Times,serif" font-size="14.00">BrowserModule</text>
</g>
<!-- BrowserModule&#45;&gt;AppModule -->
<g id="edge6" class="edge">
<title>BrowserModule&#45;&gt;AppModule</title>
<path fill="none" stroke="black" d="M902,-122.11C902,-122.11 902,-140.99 902,-140.99"/>
<polygon fill="black" stroke="black" points="898.5,-140.99 902,-150.99 905.5,-140.99 898.5,-140.99"/>
</g>
<!-- HttpClientModule -->
<g id="node8" class="node">
<title>HttpClientModule</title>
<polygon fill="#8dd3c7" stroke="black" points="830.16,-122 827.16,-126 806.16,-126 803.16,-122 711.84,-122 711.84,-86 830.16,-86 830.16,-122"/>
<text text-anchor="middle" x="771" y="-99.8" font-family="Times,serif" font-size="14.00">HttpClientModule</text>
</g>
<!-- HttpClientModule&#45;&gt;AppModule -->
<g id="edge7" class="edge">
<title>HttpClientModule&#45;&gt;AppModule</title>
<path fill="none" stroke="black" d="M771,-122.24C771,-137.57 771,-157 771,-157 771,-157 850.19,-157 850.19,-157"/>
<polygon fill="black" stroke="black" points="850.19,-160.5 860.19,-157 850.19,-153.5 850.19,-160.5"/>
</g>
<!-- AppRoutingModule -->
<g id="node9" class="node">
<title>AppRoutingModule</title>
<polygon fill="#8dd3c7" stroke="black" points="693.27,-122 690.27,-126 669.27,-126 666.27,-122 564.73,-122 564.73,-86 693.27,-86 693.27,-122"/>
<text text-anchor="middle" x="629" y="-99.8" font-family="Times,serif" font-size="14.00">AppRoutingModule</text>
</g>
<!-- AppRoutingModule&#45;&gt;AppModule -->
<g id="edge8" class="edge">
<title>AppRoutingModule&#45;&gt;AppModule</title>
<path fill="none" stroke="black" d="M629,-122.02C629,-139.37 629,-163 629,-163 629,-163 850.24,-163 850.24,-163"/>
<polygon fill="black" stroke="black" points="850.24,-166.5 860.24,-163 850.24,-159.5 850.24,-166.5"/>
</g>
<!-- StarRatingModule.forRoot() -->
<g id="node10" class="node">
<title>StarRatingModule.forRoot()</title>
<polygon fill="#8dd3c7" stroke="black" points="546.8,-122 543.8,-126 522.8,-126 519.8,-122 371.2,-122 371.2,-86 546.8,-86 546.8,-122"/>
<text text-anchor="middle" x="459" y="-99.8" font-family="Times,serif" font-size="14.00">StarRatingModule.forRoot()</text>
</g>
<!-- StarRatingModule.forRoot()&#45;&gt;AppModule -->
<g id="edge9" class="edge">
<title>StarRatingModule.forRoot()&#45;&gt;AppModule</title>
<path fill="none" stroke="black" d="M459,-122.11C459,-141.34 459,-169 459,-169 459,-169 850.32,-169 850.32,-169"/>
<polygon fill="black" stroke="black" points="850.32,-172.5 860.32,-169 850.32,-165.5 850.32,-172.5"/>
</g>
<!-- provideFirebaseApp.(args) -->
<g id="node11" class="node">
<title>provideFirebaseApp.(args)</title>
<polygon fill="#8dd3c7" stroke="black" points="353.44,-122 350.44,-126 329.44,-126 326.44,-122 186.56,-122 186.56,-86 353.44,-86 353.44,-122"/>
<text text-anchor="middle" x="270" y="-99.8" font-family="Times,serif" font-size="14.00">provideFirebaseApp.(args)</text>
</g>
<!-- provideFirebaseApp.(args)&#45;&gt;AppModule -->
<g id="edge10" class="edge">
<title>provideFirebaseApp.(args)&#45;&gt;AppModule</title>
<path fill="none" stroke="black" d="M270,-122.28C270,-143.32 270,-175 270,-175 270,-175 850.04,-175 850.04,-175"/>
<polygon fill="black" stroke="black" points="850.04,-178.5 860.04,-175 850.04,-171.5 850.04,-178.5"/>
</g>
<!-- provideFirestore.(args) -->
<g id="node12" class="node">
<title>provideFirestore.(args)</title>
<polygon fill="#8dd3c7" stroke="black" points="168.17,-122 165.17,-126 144.17,-126 141.17,-122 23.83,-122 23.83,-86 168.17,-86 168.17,-122"/>
<text text-anchor="middle" x="96" y="-99.8" font-family="Times,serif" font-size="14.00">provideFirestore.(args)</text>
</g>
<!-- provideFirestore.(args)&#45;&gt;AppModule -->
<g id="edge11" class="edge">
<title>provideFirestore.(args)&#45;&gt;AppModule</title>
<path fill="none" stroke="black" d="M96,-122.25C96,-145.02 96,-181 96,-181 96,-181 850.08,-181 850.08,-181"/>
<polygon fill="black" stroke="black" points="850.08,-184.5 860.08,-181 850.08,-177.5 850.08,-184.5"/>
</g>
</g>
</svg>
