<?xml version="1.0" encoding="UTF-8" standalone="no"?>
<!DOCTYPE svg PUBLIC "-//W3C//DTD SVG 1.1//EN"
 "http://www.w3.org/Graphics/SVG/1.1/DTD/svg11.dtd">
<!-- Generated by graphviz version 2.47.0 (20210316.0004)
 -->
<!-- Title: dependencies Pages: 1 -->
<svg width="1522pt" height="284pt"
 viewBox="0.00 0.00 1522.00 284.00" xmlns="http://www.w3.org/2000/svg" xmlns:xlink="http://www.w3.org/1999/xlink">
<g id="graph0" class="graph" transform="scale(1 1) rotate(0) translate(4 280)">
<title>dependencies</title>
<polygon fill="white" stroke="transparent" points="-4,4 -4,-280 1518,-280 1518,4 -4,4"/>
<text text-anchor="start" x="736.01" y="-42.4" font-family="Times-12" font-weight="bold" font-size="14.00">Legend</text>
<polygon fill="#ffffb3" stroke="transparent" points="523,-10 523,-30 543,-30 543,-10 523,-10"/>
<text text-anchor="start" x="546.63" y="-15.4" font-family="Times-12" font-size="14.00"> &#160;Declarations</text>
<polygon fill="#8dd3c7" stroke="transparent" points="636,-10 636,-30 656,-30 656,-10 636,-10"/>
<text text-anchor="start" x="659.73" y="-15.4" font-family="Times-12" font-size="14.00"> &#160;Module</text>
<polygon fill="#80b1d3" stroke="transparent" points="722,-10 722,-30 742,-30 742,-10 722,-10"/>
<text text-anchor="start" x="745.78" y="-15.4" font-family="Times-12" font-size="14.00"> &#160;Bootstrap</text>
<polygon fill="#fdb462" stroke="transparent" points="819,-10 819,-30 839,-30 839,-10 819,-10"/>
<text text-anchor="start" x="842.67" y="-15.4" font-family="Times-12" font-size="14.00"> &#160;Providers</text>
<polygon fill="#fb8072" stroke="transparent" points="915,-10 915,-30 935,-30 935,-10 915,-10"/>
<text text-anchor="start" x="938.73" y="-15.4" font-family="Times-12" font-size="14.00"> &#160;Exports</text>
<g id="clust1" class="cluster">
<title>cluster_AppModule</title>
<polygon fill="none" stroke="black" stroke-dasharray="1,5" points="8,-70 8,-268 1506,-268 1506,-70 8,-70"/>
</g>
<g id="clust2" class="cluster">
<title>cluster_AppModule_declarations</title>
<polygon fill="none" stroke="black" points="746,-78 746,-130 1498,-130 1498,-78 746,-78"/>
</g>
<g id="clust10" class="cluster">
<title>cluster_AppModule_bootstrap</title>
<polygon fill="none" stroke="black" points="845,-208 845,-260 969,-260 969,-208 845,-208"/>
</g>
<g id="clust8" class="cluster">
<title>cluster_AppModule_imports</title>
<polygon fill="none" stroke="black" points="16,-78 16,-130 738,-130 738,-78 16,-78"/>
</g>
<!-- AppComponent -->
<g id="node1" class="node">
<title>AppComponent</title>
<polygon fill="#ffffb3" stroke="black" points="1489.94,-122 1384.06,-122 1384.06,-86 1489.94,-86 1489.94,-122"/>
<text text-anchor="middle" x="1437" y="-99.8" font-family="Times,serif" font-size="14.00">AppComponent</text>
</g>
<!-- AppModule -->
<g id="node6" class="node">
<title>AppModule</title>
<polygon fill="#8dd3c7" stroke="black" points="948.66,-187 945.66,-191 924.66,-191 921.66,-187 865.34,-187 865.34,-151 948.66,-151 948.66,-187"/>
<text text-anchor="middle" x="907" y="-164.8" font-family="Times,serif" font-size="14.00">AppModule</text>
</g>
<!-- AppComponent&#45;&gt;AppModule -->
<g id="edge1" class="edge">
<title>AppComponent&#45;&gt;AppModule</title>
<path fill="none" stroke="black" d="M1437,-122.29C1437,-144.21 1437,-178 1437,-178 1437,-178 959.03,-178 959.03,-178"/>
<polygon fill="black" stroke="black" points="959.03,-174.5 949.03,-178 959.03,-181.5 959.03,-174.5"/>
</g>
<!-- HomepageComponent -->
<g id="node2" class="node">
<title>HomepageComponent</title>
<polygon fill="#ffffb3" stroke="black" points="1365.97,-122 1224.03,-122 1224.03,-86 1365.97,-86 1365.97,-122"/>
<text text-anchor="middle" x="1295" y="-99.8" font-family="Times,serif" font-size="14.00">HomepageComponent</text>
</g>
<!-- HomepageComponent&#45;&gt;AppModule -->
<g id="edge2" class="edge">
<title>HomepageComponent&#45;&gt;AppModule</title>
<path fill="none" stroke="black" d="M1295,-122.11C1295,-141.34 1295,-169 1295,-169 1295,-169 958.89,-169 958.89,-169"/>
<polygon fill="black" stroke="black" points="958.89,-165.5 948.89,-169 958.89,-172.5 958.89,-165.5"/>
</g>
<!-- MovieComponent -->
<g id="node3" class="node">
<title>MovieComponent</title>
<polygon fill="#ffffb3" stroke="black" points="1205.88,-122 1088.12,-122 1088.12,-86 1205.88,-86 1205.88,-122"/>
<text text-anchor="middle" x="1147" y="-99.8" font-family="Times,serif" font-size="14.00">MovieComponent</text>
</g>
<!-- MovieComponent&#45;&gt;AppModule -->
<g id="edge3" class="edge">
<title>MovieComponent&#45;&gt;AppModule</title>
<path fill="none" stroke="black" d="M1147,-122.03C1147,-138.4 1147,-160 1147,-160 1147,-160 958.8,-160 958.8,-160"/>
<polygon fill="black" stroke="black" points="958.8,-156.5 948.8,-160 958.8,-163.5 958.8,-156.5"/>
</g>
<!-- MovieDetailsComponent -->
<g id="node4" class="node">
<title>MovieDetailsComponent</title>
<polygon fill="#ffffb3" stroke="black" points="1069.54,-122 912.46,-122 912.46,-86 1069.54,-86 1069.54,-122"/>
<text text-anchor="middle" x="991" y="-99.8" font-family="Times,serif" font-size="14.00">MovieDetailsComponent</text>
</g>
<!-- MovieDetailsComponent&#45;&gt;AppModule -->
<g id="edge4" class="edge">
<title>MovieDetailsComponent&#45;&gt;AppModule</title>
<path fill="none" stroke="black" d="M930.53,-122.11C930.53,-122.11 930.53,-140.99 930.53,-140.99"/>
<polygon fill="black" stroke="black" points="927.03,-140.99 930.53,-150.99 934.03,-140.99 927.03,-140.99"/>
</g>
<!-- MovieListComponent -->
<g id="node5" class="node">
<title>MovieListComponent</title>
<polygon fill="#ffffb3" stroke="black" points="893.66,-122 754.34,-122 754.34,-86 893.66,-86 893.66,-122"/>
<text text-anchor="middle" x="824" y="-99.8" font-family="Times,serif" font-size="14.00">MovieListComponent</text>
</g>
<!-- MovieListComponent&#45;&gt;AppModule -->
<g id="edge5" class="edge">
<title>MovieListComponent&#45;&gt;AppModule</title>
<path fill="none" stroke="black" d="M879.5,-122.11C879.5,-122.11 879.5,-140.99 879.5,-140.99"/>
<polygon fill="black" stroke="black" points="876,-140.99 879.5,-150.99 883,-140.99 876,-140.99"/>
</g>
<!-- AppComponent  -->
<g id="node10" class="node">
<title>AppComponent </title>
<polygon fill="#80b1d3" stroke="black" points="961.44,-252 852.56,-252 852.56,-216 961.44,-216 961.44,-252"/>
<text text-anchor="middle" x="907" y="-229.8" font-family="Times,serif" font-size="14.00">AppComponent </text>
</g>
<!-- AppModule&#45;&gt;AppComponent  -->
<g id="edge9" class="edge">
<title>AppModule&#45;&gt;AppComponent </title>
<path fill="none" stroke="black" stroke-dasharray="1,5" d="M907,-187.11C907,-187.11 907,-205.99 907,-205.99"/>
<polygon fill="black" stroke="black" points="903.5,-205.99 907,-215.99 910.5,-205.99 903.5,-205.99"/>
</g>
<!-- AppRoutingModule -->
<g id="node7" class="node">
<title>AppRoutingModule</title>
<polygon fill="#8dd3c7" stroke="black" points="730.27,-122 727.27,-126 706.27,-126 703.27,-122 601.73,-122 601.73,-86 730.27,-86 730.27,-122"/>
<text text-anchor="middle" x="666" y="-99.8" font-family="Times,serif" font-size="14.00">AppRoutingModule</text>
</g>
<!-- AppRoutingModule&#45;&gt;AppModule -->
<g id="edge6" class="edge">
<title>AppRoutingModule&#45;&gt;AppModule</title>
<path fill="none" stroke="black" d="M666,-122.03C666,-138.4 666,-160 666,-160 666,-160 855.3,-160 855.3,-160"/>
<polygon fill="black" stroke="black" points="855.3,-163.5 865.3,-160 855.3,-156.5 855.3,-163.5"/>
</g>
<!-- provideFirebaseApp(() =&gt; initializeApp(environment -->
<g id="node8" class="node">
<title>provideFirebaseApp(() =&gt; initializeApp(environment</title>
<polygon fill="#8dd3c7" stroke="black" points="583.58,-122 580.58,-126 559.58,-126 556.58,-122 268.42,-122 268.42,-86 583.58,-86 583.58,-122"/>
<text text-anchor="middle" x="426" y="-99.8" font-family="Times,serif" font-size="14.00">provideFirebaseApp(() =&gt; initializeApp(environment</text>
</g>
<!-- provideFirebaseApp(() =&gt; initializeApp(environment&#45;&gt;AppModule -->
<g id="edge7" class="edge">
<title>provideFirebaseApp(() =&gt; initializeApp(environment&#45;&gt;AppModule</title>
<path fill="none" stroke="black" d="M426,-122.11C426,-141.34 426,-169 426,-169 426,-169 855.16,-169 855.16,-169"/>
<polygon fill="black" stroke="black" points="855.16,-172.5 865.16,-169 855.16,-165.5 855.16,-172.5"/>
</g>
<!-- provideFirestore(() =&gt; getFirestore()) -->
<g id="node9" class="node">
<title>provideFirestore(() =&gt; getFirestore())</title>
<polygon fill="#8dd3c7" stroke="black" points="250.14,-122 247.14,-126 226.14,-126 223.14,-122 23.86,-122 23.86,-86 250.14,-86 250.14,-122"/>
<text text-anchor="middle" x="137" y="-99.8" font-family="Times,serif" font-size="14.00">provideFirestore(() =&gt; getFirestore())</text>
</g>
<!-- provideFirestore(() =&gt; getFirestore())&#45;&gt;AppModule -->
<g id="edge8" class="edge">
<title>provideFirestore(() =&gt; getFirestore())&#45;&gt;AppModule</title>
<path fill="none" stroke="black" d="M137,-122.29C137,-144.21 137,-178 137,-178 137,-178 855.33,-178 855.33,-178"/>
<polygon fill="black" stroke="black" points="855.33,-181.5 865.33,-178 855.33,-174.5 855.33,-181.5"/>
</g>
</g>
</svg>
