<?xml version="1.0" encoding="UTF-8" standalone="no"?>
<!DOCTYPE svg PUBLIC "-//W3C//DTD SVG 1.1//EN"
 "http://www.w3.org/Graphics/SVG/1.1/DTD/svg11.dtd">
<!-- Generated by graphviz version 2.47.0 (20210316.0004)
 -->
<!-- Title: dependencies Pages: 1 -->
<svg width="2063pt" height="360pt"
 viewBox="0.00 0.00 2063.00 360.00" xmlns="http://www.w3.org/2000/svg" xmlns:xlink="http://www.w3.org/1999/xlink">
<g id="graph0" class="graph" transform="scale(1 1) rotate(0) translate(4 356)">
<title>dependencies</title>
<polygon fill="white" stroke="transparent" points="-4,4 -4,-356 2059,-356 2059,4 -4,4"/>
<text text-anchor="start" x="1006.51" y="-42.4" font-family="Times-12" font-weight="bold" font-size="14.00">Legend</text>
<polygon fill="#ffffb3" stroke="transparent" points="793.5,-10 793.5,-30 813.5,-30 813.5,-10 793.5,-10"/>
<text text-anchor="start" x="817.13" y="-15.4" font-family="Times-12" font-size="14.00"> &#160;Declarations</text>
<polygon fill="#8dd3c7" stroke="transparent" points="906.5,-10 906.5,-30 926.5,-30 926.5,-10 906.5,-10"/>
<text text-anchor="start" x="930.23" y="-15.4" font-family="Times-12" font-size="14.00"> &#160;Module</text>
<polygon fill="#80b1d3" stroke="transparent" points="992.5,-10 992.5,-30 1012.5,-30 1012.5,-10 992.5,-10"/>
<text text-anchor="start" x="1016.28" y="-15.4" font-family="Times-12" font-size="14.00"> &#160;Bootstrap</text>
<polygon fill="#fdb462" stroke="transparent" points="1089.5,-10 1089.5,-30 1109.5,-30 1109.5,-10 1089.5,-10"/>
<text text-anchor="start" x="1113.17" y="-15.4" font-family="Times-12" font-size="14.00"> &#160;Providers</text>
<polygon fill="#fb8072" stroke="transparent" points="1185.5,-10 1185.5,-30 1205.5,-30 1205.5,-10 1185.5,-10"/>
<text text-anchor="start" x="1209.23" y="-15.4" font-family="Times-12" font-size="14.00"> &#160;Exports</text>
<g id="clust1" class="cluster">
<title>cluster_AppModule</title>
<polygon fill="none" stroke="black" stroke-dasharray="1,5" points="8,-146 8,-344 2047,-344 2047,-146 8,-146"/>
</g>
<g id="clust2" class="cluster">
<title>cluster_AppModule_declarations</title>
<polygon fill="none" stroke="black" points="971,-154 971,-206 2039,-206 2039,-154 971,-154"/>
</g>
<g id="clust10" class="cluster">
<title>cluster_AppModule_imports</title>
<polygon fill="none" stroke="black" points="16,-154 16,-206 963,-206 963,-154 16,-154"/>
</g>
<g id="clust12" class="cluster">
<title>cluster_AppModule_bootstrap</title>
<polygon fill="none" stroke="black" points="986,-284 986,-336 1110,-336 1110,-284 986,-284"/>
</g>
<g id="clust14" class="cluster">
<title>cluster_AppRoutingModule</title>
<polygon fill="none" stroke="black" stroke-dasharray="1,5" points="398,-70 398,-138 864,-138 864,-70 398,-70"/>
</g>
<g id="clust16" class="cluster">
<title>cluster_AppRoutingModule_imports</title>
<polygon fill="none" stroke="black" points="532,-78 532,-130 856,-130 856,-78 532,-78"/>
</g>
<g id="clust17" class="cluster">
<title>cluster_AppRoutingModule_exports</title>
<polygon fill="none" stroke="black" points="406,-78 406,-130 524,-130 524,-78 406,-78"/>
</g>
<!-- AppComponent -->
<g id="node1" class="node">
<title>AppComponent</title>
<polygon fill="#ffffb3" stroke="black" points="2030.94,-198 1925.06,-198 1925.06,-162 2030.94,-162 2030.94,-198"/>
<text text-anchor="middle" x="1978" y="-175.8" font-family="Times,serif" font-size="14.00">AppComponent</text>
</g>
<!-- AppModule -->
<g id="node8" class="node">
<title>AppModule</title>
<polygon fill="#8dd3c7" stroke="black" points="1089.66,-263 1086.66,-267 1065.66,-267 1062.66,-263 1006.34,-263 1006.34,-227 1089.66,-227 1089.66,-263"/>
<text text-anchor="middle" x="1048" y="-240.8" font-family="Times,serif" font-size="14.00">AppModule</text>
</g>
<!-- AppComponent&#45;&gt;AppModule -->
<g id="edge1" class="edge">
<title>AppComponent&#45;&gt;AppModule</title>
<path fill="none" stroke="black" d="M1978,-198.09C1978,-221.13 1978,-258 1978,-258 1978,-258 1099.77,-258 1099.77,-258"/>
<polygon fill="black" stroke="black" points="1099.77,-254.5 1089.77,-258 1099.77,-261.5 1099.77,-254.5"/>
</g>
<!-- MovieComponent -->
<g id="node2" class="node">
<title>MovieComponent</title>
<polygon fill="#ffffb3" stroke="black" points="1906.88,-198 1789.12,-198 1789.12,-162 1906.88,-162 1906.88,-198"/>
<text text-anchor="middle" x="1848" y="-175.8" font-family="Times,serif" font-size="14.00">MovieComponent</text>
</g>
<!-- MovieComponent&#45;&gt;AppModule -->
<g id="edge2" class="edge">
<title>MovieComponent&#45;&gt;AppModule</title>
<path fill="none" stroke="black" d="M1848,-198.04C1848,-219.66 1848,-253 1848,-253 1848,-253 1099.89,-253 1099.89,-253"/>
<polygon fill="black" stroke="black" points="1099.89,-249.5 1089.89,-253 1099.89,-256.5 1099.89,-249.5"/>
</g>
<!-- MovieListComponent -->
<g id="node3" class="node">
<title>MovieListComponent</title>
<polygon fill="#ffffb3" stroke="black" points="1770.66,-198 1631.34,-198 1631.34,-162 1770.66,-162 1770.66,-198"/>
<text text-anchor="middle" x="1701" y="-175.8" font-family="Times,serif" font-size="14.00">MovieListComponent</text>
</g>
<!-- MovieListComponent&#45;&gt;AppModule -->
<g id="edge3" class="edge">
<title>MovieListComponent&#45;&gt;AppModule</title>
<path fill="none" stroke="black" d="M1701,-198.22C1701,-218.37 1701,-248 1701,-248 1701,-248 1099.84,-248 1099.84,-248"/>
<polygon fill="black" stroke="black" points="1099.84,-244.5 1089.84,-248 1099.84,-251.5 1099.84,-244.5"/>
</g>
<!-- MovieDetailsComponent -->
<g id="node4" class="node">
<title>MovieDetailsComponent</title>
<polygon fill="#ffffb3" stroke="black" points="1612.54,-198 1455.46,-198 1455.46,-162 1612.54,-162 1612.54,-198"/>
<text text-anchor="middle" x="1534" y="-175.8" font-family="Times,serif" font-size="14.00">MovieDetailsComponent</text>
</g>
<!-- MovieDetailsComponent&#45;&gt;AppModule -->
<g id="edge4" class="edge">
<title>MovieDetailsComponent&#45;&gt;AppModule</title>
<path fill="none" stroke="black" d="M1534,-198.22C1534,-216.83 1534,-243 1534,-243 1534,-243 1099.86,-243 1099.86,-243"/>
<polygon fill="black" stroke="black" points="1099.86,-239.5 1089.86,-243 1099.86,-246.5 1099.86,-239.5"/>
</g>
<!-- HomepageComponent -->
<g id="node5" class="node">
<title>HomepageComponent</title>
<polygon fill="#ffffb3" stroke="black" points="1436.97,-198 1295.03,-198 1295.03,-162 1436.97,-162 1436.97,-198"/>
<text text-anchor="middle" x="1366" y="-175.8" font-family="Times,serif" font-size="14.00">HomepageComponent</text>
</g>
<!-- HomepageComponent&#45;&gt;AppModule -->
<g id="edge5" class="edge">
<title>HomepageComponent&#45;&gt;AppModule</title>
<path fill="none" stroke="black" d="M1366,-198.03C1366,-215.06 1366,-238 1366,-238 1366,-238 1099.9,-238 1099.9,-238"/>
<polygon fill="black" stroke="black" points="1099.9,-234.5 1089.9,-238 1099.9,-241.5 1099.9,-234.5"/>
</g>
<!-- HeaderBarComponent -->
<g id="node6" class="node">
<title>HeaderBarComponent</title>
<polygon fill="#ffffb3" stroke="black" points="1276.96,-198 1135.04,-198 1135.04,-162 1276.96,-162 1276.96,-198"/>
<text text-anchor="middle" x="1206" y="-175.8" font-family="Times,serif" font-size="14.00">HeaderBarComponent</text>
</g>
<!-- HeaderBarComponent&#45;&gt;AppModule -->
<g id="edge6" class="edge">
<title>HeaderBarComponent&#45;&gt;AppModule</title>
<path fill="none" stroke="black" d="M1206,-198.24C1206,-213.57 1206,-233 1206,-233 1206,-233 1099.93,-233 1099.93,-233"/>
<polygon fill="black" stroke="black" points="1099.93,-229.5 1089.93,-233 1099.93,-236.5 1099.93,-229.5"/>
</g>
<!-- FooterBarComponent -->
<g id="node7" class="node">
<title>FooterBarComponent</title>
<polygon fill="#ffffb3" stroke="black" points="1117.09,-198 978.91,-198 978.91,-162 1117.09,-162 1117.09,-198"/>
<text text-anchor="middle" x="1048" y="-175.8" font-family="Times,serif" font-size="14.00">FooterBarComponent</text>
</g>
<!-- FooterBarComponent&#45;&gt;AppModule -->
<g id="edge7" class="edge">
<title>FooterBarComponent&#45;&gt;AppModule</title>
<path fill="none" stroke="black" d="M1048,-198.11C1048,-198.11 1048,-216.99 1048,-216.99"/>
<polygon fill="black" stroke="black" points="1044.5,-216.99 1048,-226.99 1051.5,-216.99 1044.5,-216.99"/>
</g>
<!-- AppComponent  -->
<g id="node15" class="node">
<title>AppComponent </title>
<polygon fill="#80b1d3" stroke="black" points="1102.44,-328 993.56,-328 993.56,-292 1102.44,-292 1102.44,-328"/>
<text text-anchor="middle" x="1048" y="-305.8" font-family="Times,serif" font-size="14.00">AppComponent </text>
</g>
<!-- AppModule&#45;&gt;AppComponent  -->
<g id="edge14" class="edge">
<title>AppModule&#45;&gt;AppComponent </title>
<path fill="none" stroke="black" stroke-dasharray="1,5" d="M1048,-263.11C1048,-263.11 1048,-281.99 1048,-281.99"/>
<polygon fill="black" stroke="black" points="1044.5,-281.99 1048,-291.99 1051.5,-281.99 1044.5,-281.99"/>
</g>
<!-- BrowserModule -->
<g id="node9" class="node">
<title>BrowserModule</title>
<polygon fill="#8dd3c7" stroke="black" points="955.47,-198 952.47,-202 931.47,-202 928.47,-198 848.53,-198 848.53,-162 955.47,-162 955.47,-198"/>
<text text-anchor="middle" x="902" y="-175.8" font-family="Times,serif" font-size="14.00">BrowserModule</text>
</g>
<!-- BrowserModule&#45;&gt;AppModule -->
<g id="edge8" class="edge">
<title>BrowserModule&#45;&gt;AppModule</title>
<path fill="none" stroke="black" d="M902,-198.24C902,-213.57 902,-233 902,-233 902,-233 996.16,-233 996.16,-233"/>
<polygon fill="black" stroke="black" points="996.16,-236.5 1006.16,-233 996.16,-229.5 996.16,-236.5"/>
</g>
<!-- HttpClientModule -->
<g id="node10" class="node">
<title>HttpClientModule</title>
<polygon fill="#8dd3c7" stroke="black" points="830.16,-198 827.16,-202 806.16,-202 803.16,-198 711.84,-198 711.84,-162 830.16,-162 830.16,-198"/>
<text text-anchor="middle" x="771" y="-175.8" font-family="Times,serif" font-size="14.00">HttpClientModule</text>
</g>
<!-- HttpClientModule&#45;&gt;AppModule -->
<g id="edge9" class="edge">
<title>HttpClientModule&#45;&gt;AppModule</title>
<path fill="none" stroke="black" d="M771,-198.03C771,-215.06 771,-238 771,-238 771,-238 996.23,-238 996.23,-238"/>
<polygon fill="black" stroke="black" points="996.23,-241.5 1006.23,-238 996.23,-234.5 996.23,-241.5"/>
</g>
<!-- AppRoutingModule -->
<g id="node11" class="node">
<title>AppRoutingModule</title>
<polygon fill="#8dd3c7" stroke="black" points="693.27,-198 690.27,-202 669.27,-202 666.27,-198 564.73,-198 564.73,-162 693.27,-162 693.27,-198"/>
<text text-anchor="middle" x="629" y="-175.8" font-family="Times,serif" font-size="14.00">AppRoutingModule</text>
</g>
<!-- AppRoutingModule&#45;&gt;AppModule -->
<g id="edge10" class="edge">
<title>AppRoutingModule&#45;&gt;AppModule</title>
<path fill="none" stroke="black" d="M629,-198.22C629,-216.83 629,-243 629,-243 629,-243 996.29,-243 996.29,-243"/>
<polygon fill="black" stroke="black" points="996.29,-246.5 1006.29,-243 996.29,-239.5 996.29,-246.5"/>
</g>
<!-- RouterModule  -->
<g id="node18" class="node">
<title>RouterModule </title>
<polygon fill="#fb8072" stroke="black" points="515.65,-122 414.35,-122 414.35,-86 515.65,-86 515.65,-122"/>
<text text-anchor="middle" x="465" y="-99.8" font-family="Times,serif" font-size="14.00">RouterModule </text>
</g>
<!-- AppRoutingModule&#45;&gt;RouterModule  -->
<g id="edge17" class="edge">
<title>AppRoutingModule&#45;&gt;RouterModule </title>
<path fill="none" stroke="black" stroke-dasharray="5,2" d="M596.81,-161.85C596.81,-149.73 596.81,-136 596.81,-136 596.81,-136 465,-136 465,-136 465,-136 465,-132.24 465,-132.24"/>
<polygon fill="black" stroke="black" points="468.5,-132.24 465,-122.24 461.5,-132.24 468.5,-132.24"/>
</g>
<!-- StarRatingModule.forRoot() -->
<g id="node12" class="node">
<title>StarRatingModule.forRoot()</title>
<polygon fill="#8dd3c7" stroke="black" points="546.8,-198 543.8,-202 522.8,-202 519.8,-198 371.2,-198 371.2,-162 546.8,-162 546.8,-198"/>
<text text-anchor="middle" x="459" y="-175.8" font-family="Times,serif" font-size="14.00">StarRatingModule.forRoot()</text>
</g>
<!-- StarRatingModule.forRoot()&#45;&gt;AppModule -->
<g id="edge11" class="edge">
<title>StarRatingModule.forRoot()&#45;&gt;AppModule</title>
<path fill="none" stroke="black" d="M459,-198.22C459,-218.37 459,-248 459,-248 459,-248 996.11,-248 996.11,-248"/>
<polygon fill="black" stroke="black" points="996.11,-251.5 1006.11,-248 996.11,-244.5 996.11,-251.5"/>
</g>
<!-- provideFirebaseApp.(args) -->
<g id="node13" class="node">
<title>provideFirebaseApp.(args)</title>
<polygon fill="#8dd3c7" stroke="black" points="353.44,-198 350.44,-202 329.44,-202 326.44,-198 186.56,-198 186.56,-162 353.44,-162 353.44,-198"/>
<text text-anchor="middle" x="270" y="-175.8" font-family="Times,serif" font-size="14.00">provideFirebaseApp.(args)</text>
</g>
<!-- provideFirebaseApp.(args)&#45;&gt;AppModule -->
<g id="edge12" class="edge">
<title>provideFirebaseApp.(args)&#45;&gt;AppModule</title>
<path fill="none" stroke="black" d="M270,-198.04C270,-219.66 270,-253 270,-253 270,-253 996.17,-253 996.17,-253"/>
<polygon fill="black" stroke="black" points="996.17,-256.5 1006.17,-253 996.17,-249.5 996.17,-256.5"/>
</g>
<!-- provideFirestore.(args) -->
<g id="node14" class="node">
<title>provideFirestore.(args)</title>
<polygon fill="#8dd3c7" stroke="black" points="168.17,-198 165.17,-202 144.17,-202 141.17,-198 23.83,-198 23.83,-162 168.17,-162 168.17,-198"/>
<text text-anchor="middle" x="96" y="-175.8" font-family="Times,serif" font-size="14.00">provideFirestore.(args)</text>
</g>
<!-- provideFirestore.(args)&#45;&gt;AppModule -->
<g id="edge13" class="edge">
<title>provideFirestore.(args)&#45;&gt;AppModule</title>
<path fill="none" stroke="black" d="M96,-198.09C96,-221.13 96,-258 96,-258 96,-258 996.17,-258 996.17,-258"/>
<polygon fill="black" stroke="black" points="996.17,-261.5 1006.17,-258 996.17,-254.5 996.17,-261.5"/>
</g>
<!-- CommonModule -->
<g id="node16" class="node">
<title>CommonModule</title>
<polygon fill="#8dd3c7" stroke="black" points="847.67,-122 844.67,-126 823.67,-126 820.67,-122 736.33,-122 736.33,-86 847.67,-86 847.67,-122"/>
<text text-anchor="middle" x="792" y="-99.8" font-family="Times,serif" font-size="14.00">CommonModule</text>
</g>
<!-- CommonModule&#45;&gt;AppRoutingModule -->
<g id="edge15" class="edge">
<title>CommonModule&#45;&gt;AppRoutingModule</title>
<path fill="none" stroke="black" d="M783.25,-122.04C783.25,-134.56 783.25,-149 783.25,-149 783.25,-149 661.19,-149 661.19,-149 661.19,-149 661.19,-151.97 661.19,-151.97"/>
<polygon fill="black" stroke="black" points="657.69,-151.97 661.19,-161.97 664.69,-151.97 657.69,-151.97"/>
</g>
<!-- RouterModule.forRoot(args) -->
<g id="node17" class="node">
<title>RouterModule.forRoot(args)</title>
<polygon fill="#8dd3c7" stroke="black" points="717.84,-122 714.84,-126 693.84,-126 690.84,-122 540.16,-122 540.16,-86 717.84,-86 717.84,-122"/>
<text text-anchor="middle" x="629" y="-99.8" font-family="Times,serif" font-size="14.00">RouterModule.forRoot(args)</text>
</g>
<!-- RouterModule.forRoot(args)&#45;&gt;AppRoutingModule -->
<g id="edge16" class="edge">
<title>RouterModule.forRoot(args)&#45;&gt;AppRoutingModule</title>
<path fill="none" stroke="black" d="M629,-122.01C629,-122.01 629,-151.85 629,-151.85"/>
<polygon fill="black" stroke="black" points="625.5,-151.85 629,-161.85 632.5,-151.85 625.5,-151.85"/>
</g>
</g>
</svg>
