<?xml version="1.0" encoding="UTF-8" standalone="no"?>
<!DOCTYPE svg PUBLIC "-//W3C//DTD SVG 1.1//EN"
 "http://www.w3.org/Graphics/SVG/1.1/DTD/svg11.dtd">
<!-- Generated by graphviz version 2.47.0 (20210316.0004)
 -->
<!-- Title: dependencies Pages: 1 -->
<svg width="1747pt" height="360pt"
 viewBox="0.00 0.00 1747.00 360.00" xmlns="http://www.w3.org/2000/svg" xmlns:xlink="http://www.w3.org/1999/xlink">
<g id="graph0" class="graph" transform="scale(1 1) rotate(0) translate(4 356)">
<title>dependencies</title>
<polygon fill="white" stroke="transparent" points="-4,4 -4,-356 1743,-356 1743,4 -4,4"/>
<text text-anchor="start" x="848.51" y="-42.4" font-family="Times-12" font-weight="bold" font-size="14.00">Legend</text>
<polygon fill="#ffffb3" stroke="transparent" points="635.5,-10 635.5,-30 655.5,-30 655.5,-10 635.5,-10"/>
<text text-anchor="start" x="659.13" y="-15.4" font-family="Times-12" font-size="14.00"> &#160;Declarations</text>
<polygon fill="#8dd3c7" stroke="transparent" points="748.5,-10 748.5,-30 768.5,-30 768.5,-10 748.5,-10"/>
<text text-anchor="start" x="772.23" y="-15.4" font-family="Times-12" font-size="14.00"> &#160;Module</text>
<polygon fill="#80b1d3" stroke="transparent" points="834.5,-10 834.5,-30 854.5,-30 854.5,-10 834.5,-10"/>
<text text-anchor="start" x="858.28" y="-15.4" font-family="Times-12" font-size="14.00"> &#160;Bootstrap</text>
<polygon fill="#fdb462" stroke="transparent" points="931.5,-10 931.5,-30 951.5,-30 951.5,-10 931.5,-10"/>
<text text-anchor="start" x="955.17" y="-15.4" font-family="Times-12" font-size="14.00"> &#160;Providers</text>
<polygon fill="#fb8072" stroke="transparent" points="1027.5,-10 1027.5,-30 1047.5,-30 1047.5,-10 1027.5,-10"/>
<text text-anchor="start" x="1051.23" y="-15.4" font-family="Times-12" font-size="14.00"> &#160;Exports</text>
<g id="clust1" class="cluster">
<title>cluster_AppModule</title>
<polygon fill="none" stroke="black" stroke-dasharray="1,5" points="8,-146 8,-344 1731,-344 1731,-146 8,-146"/>
</g>
<g id="clust2" class="cluster">
<title>cluster_AppModule_declarations</title>
<polygon fill="none" stroke="black" points="971,-154 971,-206 1723,-206 1723,-154 971,-154"/>
</g>
<g id="clust8" class="cluster">
<title>cluster_AppModule_imports</title>
<polygon fill="none" stroke="black" points="16,-154 16,-206 963,-206 963,-154 16,-154"/>
</g>
<g id="clust10" class="cluster">
<title>cluster_AppModule_bootstrap</title>
<polygon fill="none" stroke="black" points="840,-284 840,-336 964,-336 964,-284 840,-284"/>
</g>
<g id="clust12" class="cluster">
<title>cluster_AppRoutingModule</title>
<polygon fill="none" stroke="black" stroke-dasharray="1,5" points="398,-70 398,-138 864,-138 864,-70 398,-70"/>
</g>
<g id="clust14" class="cluster">
<title>cluster_AppRoutingModule_imports</title>
<polygon fill="none" stroke="black" points="532,-78 532,-130 856,-130 856,-78 532,-78"/>
</g>
<g id="clust15" class="cluster">
<title>cluster_AppRoutingModule_exports</title>
<polygon fill="none" stroke="black" points="406,-78 406,-130 524,-130 524,-78 406,-78"/>
</g>
<!-- AppComponent -->
<g id="node1" class="node">
<title>AppComponent</title>
<polygon fill="#ffffb3" stroke="black" points="1714.94,-198 1609.06,-198 1609.06,-162 1714.94,-162 1714.94,-198"/>
<text text-anchor="middle" x="1662" y="-175.8" font-family="Times,serif" font-size="14.00">AppComponent</text>
</g>
<!-- AppModule -->
<g id="node6" class="node">
<title>AppModule</title>
<polygon fill="#8dd3c7" stroke="black" points="943.66,-263 940.66,-267 919.66,-267 916.66,-263 860.34,-263 860.34,-227 943.66,-227 943.66,-263"/>
<text text-anchor="middle" x="902" y="-240.8" font-family="Times,serif" font-size="14.00">AppModule</text>
</g>
<!-- AppComponent&#45;&gt;AppModule -->
<g id="edge1" class="edge">
<title>AppComponent&#45;&gt;AppModule</title>
<path fill="none" stroke="black" d="M1662,-198.25C1662,-221.02 1662,-257 1662,-257 1662,-257 953.67,-257 953.67,-257"/>
<polygon fill="black" stroke="black" points="953.67,-253.5 943.67,-257 953.67,-260.5 953.67,-253.5"/>
</g>
<!-- MovieComponent -->
<g id="node2" class="node">
<title>MovieComponent</title>
<polygon fill="#ffffb3" stroke="black" points="1590.88,-198 1473.12,-198 1473.12,-162 1590.88,-162 1590.88,-198"/>
<text text-anchor="middle" x="1532" y="-175.8" font-family="Times,serif" font-size="14.00">MovieComponent</text>
</g>
<!-- MovieComponent&#45;&gt;AppModule -->
<g id="edge2" class="edge">
<title>MovieComponent&#45;&gt;AppModule</title>
<path fill="none" stroke="black" d="M1532,-198.28C1532,-219.32 1532,-251 1532,-251 1532,-251 953.82,-251 953.82,-251"/>
<polygon fill="black" stroke="black" points="953.82,-247.5 943.82,-251 953.82,-254.5 953.82,-247.5"/>
</g>
<!-- MovieListComponent -->
<g id="node3" class="node">
<title>MovieListComponent</title>
<polygon fill="#ffffb3" stroke="black" points="1454.66,-198 1315.34,-198 1315.34,-162 1454.66,-162 1454.66,-198"/>
<text text-anchor="middle" x="1385" y="-175.8" font-family="Times,serif" font-size="14.00">MovieListComponent</text>
</g>
<!-- MovieListComponent&#45;&gt;AppModule -->
<g id="edge3" class="edge">
<title>MovieListComponent&#45;&gt;AppModule</title>
<path fill="none" stroke="black" d="M1385,-198.11C1385,-217.34 1385,-245 1385,-245 1385,-245 954.02,-245 954.02,-245"/>
<polygon fill="black" stroke="black" points="954.02,-241.5 944.02,-245 954.02,-248.5 954.02,-241.5"/>
</g>
<!-- MovieDetailsComponent -->
<g id="node4" class="node">
<title>MovieDetailsComponent</title>
<polygon fill="#ffffb3" stroke="black" points="1296.54,-198 1139.46,-198 1139.46,-162 1296.54,-162 1296.54,-198"/>
<text text-anchor="middle" x="1218" y="-175.8" font-family="Times,serif" font-size="14.00">MovieDetailsComponent</text>
</g>
<!-- MovieDetailsComponent&#45;&gt;AppModule -->
<g id="edge4" class="edge">
<title>MovieDetailsComponent&#45;&gt;AppModule</title>
<path fill="none" stroke="black" d="M1218,-198.02C1218,-215.37 1218,-239 1218,-239 1218,-239 953.96,-239 953.96,-239"/>
<polygon fill="black" stroke="black" points="953.96,-235.5 943.96,-239 953.96,-242.5 953.96,-235.5"/>
</g>
<!-- HomepageComponent -->
<g id="node5" class="node">
<title>HomepageComponent</title>
<polygon fill="#ffffb3" stroke="black" points="1120.97,-198 979.03,-198 979.03,-162 1120.97,-162 1120.97,-198"/>
<text text-anchor="middle" x="1050" y="-175.8" font-family="Times,serif" font-size="14.00">HomepageComponent</text>
</g>
<!-- HomepageComponent&#45;&gt;AppModule -->
<g id="edge5" class="edge">
<title>HomepageComponent&#45;&gt;AppModule</title>
<path fill="none" stroke="black" d="M1050,-198.24C1050,-213.57 1050,-233 1050,-233 1050,-233 954.01,-233 954.01,-233"/>
<polygon fill="black" stroke="black" points="954.02,-229.5 944.01,-233 954.01,-236.5 954.02,-229.5"/>
</g>
<!-- AppComponent  -->
<g id="node13" class="node">
<title>AppComponent </title>
<polygon fill="#80b1d3" stroke="black" points="956.44,-328 847.56,-328 847.56,-292 956.44,-292 956.44,-328"/>
<text text-anchor="middle" x="902" y="-305.8" font-family="Times,serif" font-size="14.00">AppComponent </text>
</g>
<!-- AppModule&#45;&gt;AppComponent  -->
<g id="edge12" class="edge">
<title>AppModule&#45;&gt;AppComponent </title>
<path fill="none" stroke="black" stroke-dasharray="1,5" d="M902,-263.11C902,-263.11 902,-281.99 902,-281.99"/>
<polygon fill="black" stroke="black" points="898.5,-281.99 902,-291.99 905.5,-281.99 898.5,-281.99"/>
</g>
<!-- BrowserModule -->
<g id="node7" class="node">
<title>BrowserModule</title>
<polygon fill="#8dd3c7" stroke="black" points="955.47,-198 952.47,-202 931.47,-202 928.47,-198 848.53,-198 848.53,-162 955.47,-162 955.47,-198"/>
<text text-anchor="middle" x="902" y="-175.8" font-family="Times,serif" font-size="14.00">BrowserModule</text>
</g>
<!-- BrowserModule&#45;&gt;AppModule -->
<g id="edge6" class="edge">
<title>BrowserModule&#45;&gt;AppModule</title>
<path fill="none" stroke="black" d="M902,-198.11C902,-198.11 902,-216.99 902,-216.99"/>
<polygon fill="black" stroke="black" points="898.5,-216.99 902,-226.99 905.5,-216.99 898.5,-216.99"/>
</g>
<!-- HttpClientModule -->
<g id="node8" class="node">
<title>HttpClientModule</title>
<polygon fill="#8dd3c7" stroke="black" points="830.16,-198 827.16,-202 806.16,-202 803.16,-198 711.84,-198 711.84,-162 830.16,-162 830.16,-198"/>
<text text-anchor="middle" x="771" y="-175.8" font-family="Times,serif" font-size="14.00">HttpClientModule</text>
</g>
<!-- HttpClientModule&#45;&gt;AppModule -->
<g id="edge7" class="edge">
<title>HttpClientModule&#45;&gt;AppModule</title>
<path fill="none" stroke="black" d="M771,-198.24C771,-213.57 771,-233 771,-233 771,-233 850.19,-233 850.19,-233"/>
<polygon fill="black" stroke="black" points="850.19,-236.5 860.19,-233 850.19,-229.5 850.19,-236.5"/>
</g>
<!-- AppRoutingModule -->
<g id="node9" class="node">
<title>AppRoutingModule</title>
<polygon fill="#8dd3c7" stroke="black" points="693.27,-198 690.27,-202 669.27,-202 666.27,-198 564.73,-198 564.73,-162 693.27,-162 693.27,-198"/>
<text text-anchor="middle" x="629" y="-175.8" font-family="Times,serif" font-size="14.00">AppRoutingModule</text>
</g>
<!-- AppRoutingModule&#45;&gt;AppModule -->
<g id="edge8" class="edge">
<title>AppRoutingModule&#45;&gt;AppModule</title>
<path fill="none" stroke="black" d="M629,-198.02C629,-215.37 629,-239 629,-239 629,-239 850.24,-239 850.24,-239"/>
<polygon fill="black" stroke="black" points="850.24,-242.5 860.24,-239 850.24,-235.5 850.24,-242.5"/>
</g>
<!-- RouterModule  -->
<g id="node16" class="node">
<title>RouterModule </title>
<polygon fill="#fb8072" stroke="black" points="515.65,-122 414.35,-122 414.35,-86 515.65,-86 515.65,-122"/>
<text text-anchor="middle" x="465" y="-99.8" font-family="Times,serif" font-size="14.00">RouterModule </text>
</g>
<!-- AppRoutingModule&#45;&gt;RouterModule  -->
<g id="edge15" class="edge">
<title>AppRoutingModule&#45;&gt;RouterModule </title>
<path fill="none" stroke="black" stroke-dasharray="5,2" d="M596.81,-161.85C596.81,-149.73 596.81,-136 596.81,-136 596.81,-136 465,-136 465,-136 465,-136 465,-132.24 465,-132.24"/>
<polygon fill="black" stroke="black" points="468.5,-132.24 465,-122.24 461.5,-132.24 468.5,-132.24"/>
</g>
<!-- StarRatingModule.forRoot() -->
<g id="node10" class="node">
<title>StarRatingModule.forRoot()</title>
<polygon fill="#8dd3c7" stroke="black" points="546.8,-198 543.8,-202 522.8,-202 519.8,-198 371.2,-198 371.2,-162 546.8,-162 546.8,-198"/>
<text text-anchor="middle" x="459" y="-175.8" font-family="Times,serif" font-size="14.00">StarRatingModule.forRoot()</text>
</g>
<!-- StarRatingModule.forRoot()&#45;&gt;AppModule -->
<g id="edge9" class="edge">
<title>StarRatingModule.forRoot()&#45;&gt;AppModule</title>
<path fill="none" stroke="black" d="M459,-198.11C459,-217.34 459,-245 459,-245 459,-245 850.32,-245 850.32,-245"/>
<polygon fill="black" stroke="black" points="850.32,-248.5 860.32,-245 850.32,-241.5 850.32,-248.5"/>
</g>
<!-- provideFirebaseApp.(args) -->
<g id="node11" class="node">
<title>provideFirebaseApp.(args)</title>
<polygon fill="#8dd3c7" stroke="black" points="353.44,-198 350.44,-202 329.44,-202 326.44,-198 186.56,-198 186.56,-162 353.44,-162 353.44,-198"/>
<text text-anchor="middle" x="270" y="-175.8" font-family="Times,serif" font-size="14.00">provideFirebaseApp.(args)</text>
</g>
<!-- provideFirebaseApp.(args)&#45;&gt;AppModule -->
<g id="edge10" class="edge">
<title>provideFirebaseApp.(args)&#45;&gt;AppModule</title>
<path fill="none" stroke="black" d="M270,-198.28C270,-219.32 270,-251 270,-251 270,-251 850.04,-251 850.04,-251"/>
<polygon fill="black" stroke="black" points="850.04,-254.5 860.04,-251 850.04,-247.5 850.04,-254.5"/>
</g>
<!-- provideFirestore.(args) -->
<g id="node12" class="node">
<title>provideFirestore.(args)</title>
<polygon fill="#8dd3c7" stroke="black" points="168.17,-198 165.17,-202 144.17,-202 141.17,-198 23.83,-198 23.83,-162 168.17,-162 168.17,-198"/>
<text text-anchor="middle" x="96" y="-175.8" font-family="Times,serif" font-size="14.00">provideFirestore.(args)</text>
</g>
<!-- provideFirestore.(args)&#45;&gt;AppModule -->
<g id="edge11" class="edge">
<title>provideFirestore.(args)&#45;&gt;AppModule</title>
<path fill="none" stroke="black" d="M96,-198.25C96,-221.02 96,-257 96,-257 96,-257 850.08,-257 850.08,-257"/>
<polygon fill="black" stroke="black" points="850.08,-260.5 860.08,-257 850.08,-253.5 850.08,-260.5"/>
</g>
<!-- CommonModule -->
<g id="node14" class="node">
<title>CommonModule</title>
<polygon fill="#8dd3c7" stroke="black" points="847.67,-122 844.67,-126 823.67,-126 820.67,-122 736.33,-122 736.33,-86 847.67,-86 847.67,-122"/>
<text text-anchor="middle" x="792" y="-99.8" font-family="Times,serif" font-size="14.00">CommonModule</text>
</g>
<!-- CommonModule&#45;&gt;AppRoutingModule -->
<g id="edge13" class="edge">
<title>CommonModule&#45;&gt;AppRoutingModule</title>
<path fill="none" stroke="black" d="M783.25,-122.04C783.25,-134.56 783.25,-149 783.25,-149 783.25,-149 661.19,-149 661.19,-149 661.19,-149 661.19,-151.97 661.19,-151.97"/>
<polygon fill="black" stroke="black" points="657.69,-151.97 661.19,-161.97 664.69,-151.97 657.69,-151.97"/>
</g>
<!-- RouterModule.forRoot(args) -->
<g id="node15" class="node">
<title>RouterModule.forRoot(args)</title>
<polygon fill="#8dd3c7" stroke="black" points="717.84,-122 714.84,-126 693.84,-126 690.84,-122 540.16,-122 540.16,-86 717.84,-86 717.84,-122"/>
<text text-anchor="middle" x="629" y="-99.8" font-family="Times,serif" font-size="14.00">RouterModule.forRoot(args)</text>
</g>
<!-- RouterModule.forRoot(args)&#45;&gt;AppRoutingModule -->
<g id="edge14" class="edge">
<title>RouterModule.forRoot(args)&#45;&gt;AppRoutingModule</title>
<path fill="none" stroke="black" d="M629,-122.01C629,-122.01 629,-151.85 629,-151.85"/>
<polygon fill="black" stroke="black" points="625.5,-151.85 629,-161.85 632.5,-151.85 625.5,-151.85"/>
</g>
</g>
</svg>
